<?xml version="1.0" encoding="utf-8"?>
<!-- Generator: Adobe Illustrator 26.3.1, SVG Export Plug-In . SVG Version: 6.00 Build 0)  -->
<svg version="1.1" id="Layer_1" xmlns="http://www.w3.org/2000/svg" xmlns:xlink="http://www.w3.org/1999/xlink" x="0px" y="0px"
	 viewBox="0 0 411.8 132.8" style="enable-background:new 0 0 411.8 132.8;" xml:space="preserve">
<style type="text/css">
	.st0{fill:#A59379;}
	.st1{fill:#E8D2AD;}
	.st2{fill:#221E19;}
</style>
<g>
	<path class="st0" d="M400.6,8.9c-6.4-4.8-12.7,6.5-20.5,6.5c-10,0-21-0.6-30-1c-17.8-0.8-51.4,0.6-69,4
		c-11.7,2.2-7.2,2.8-15.8,10.8c-0.6-1.9-1.3-3.8-1.9-5.6c-1.3-3.8-4.5-6.6-8.7-6.6c-77-0.9-154.1-1.9-231.1-2.8c-0.3,0-0.6,0-0.8,0
		c-6.3-3.5-16.2,1.2-13.2,9.8c3.5,10,8.7,19.3,15.5,27.4c-6.3,5.8-10,14.5-11.3,23.2c-1.1,7.6-0.2,14.9,1.2,22.5
		c1.4,7.9-7.9,10.2-5.3,17.9c2,6,10.1,18.3,16.5,17.9c13.1-0.8,26.1-1.7,39.2-2.5l17.7-1.2c6-0.4,12.4-0.5,18.2-2.4
		c5.2-1.7,9.2-4.5,13-8.3c0.2-0.2,1.4-1.3,2.4-2.3c0.3,0.4,0.6,0.7,0.7,0.8c3.4,4.1,7,7.2,12.3,8.5c5.9,1.4,12.4,0.6,18.4,0.6
		c52.2-0.6,104.5-1.1,156.7-1.7c29.6-0.3,59.2-0.6,88.9-0.9c4-0.1,7.6-2.8,8.7-6.6c4.7-17.1,7.8-34.7,9.2-52.4
		c0.7-8.6,0.1-24.3,0.1-33.3C411.6,14.1,408.6,14.9,400.6,8.9z"/>
	<path class="st1" d="M392,4.9c-7.6-2.6-13.1-2.5-20.9-2.5c-10,0-21-0.6-30-1c-17.8-0.8-51.4,0.6-69,4c-11.7,2.2-7.2,2.8-15.8,10.8
		c-0.6-1.9-1.3-3.8-1.9-5.6c-1.3-3.8-4.5-6.6-8.7-6.6C168.7,3,91.7,2.1,14.6,1.1c-0.3,0-0.6,0-0.8,0C7.5-2.3-2.4,2.4,0.5,10.9
		C4.1,21,9.2,30.3,16,38.3C9.7,44.1,6,52.8,4.7,61.5c-1.1,7.6-0.2,14.9,1.2,22.5c1.4,7.9,3.7,16.3,2.5,24.4
		c-0.8,5.3,2.2,11.8,8.7,11.4c13.1-0.8,26.1-1.7,39.2-2.5l17.7-1.2c6-0.4,12.4-0.5,18.2-2.4c5.2-1.7,9.2-4.5,13-8.3
		c0.2-0.2,1.4-1.3,2.4-2.3c0.3,0.4,0.6,0.7,0.7,0.8c3.4,4.1,7,7.2,12.3,8.5c5.9,1.4,12.4,0.6,18.4,0.6c52.2-0.6,104.5-1.1,156.7-1.7
		c29.6-0.3,59.2-0.6,88.9-0.9c4-0.1,7.6-2.8,8.7-6.6c4.7-17.1,7.8-34.7,9.2-52.4c0.7-8.6,0.2-17.4,0.7-26.1
		C404.1,8.4,402.1,8.4,392,4.9z"/>
	<g>
		<g>
			<path class="st2" d="M102.1,33.8c-2.1,1.5-4,3.5-5.7,5.9c-1.7,2.4-2.9,4.8-3.5,7.4c0.1,1.9,0.6,3.7,1.4,5.4
				c0.8,1.7,1.7,3.4,2.6,5.1c0.1,0.2,0.3,0.5,0.4,0.8c0.1,0.3,0.3,0.5,0.5,0.8c0.8,1.5,1.5,3.1,2.2,4.6c0.6,1.6,1,3.2,1,4.9
				c0,0.9-0.1,1.7-0.3,2.6s-0.6,1.8-1,2.7c-1.2,2.4-2.7,4.8-4.2,6.9c-1.6,2.2-3.6,3.9-6.2,5.2c-0.5-0.1-0.9-0.3-1.4-0.4
				c-0.5-0.1-0.9-0.3-1.4-0.4c-0.4-0.1-0.9-0.3-1.3-0.4c-0.4-0.1-0.9-0.2-1.4-0.3c-1.8-0.5-3.6-1.1-5.5-1.7
				c-1.8-0.6-3.6-1.4-5.3-2.4c0.2-0.2,0.5-0.5,0.7-0.8c0.2-0.3,0.5-0.5,0.7-0.8c1.4-1.6,2.8-3.3,4-5.1c1.2-1.8,1.9-3.8,2.1-5.9
				c0-0.1,0-0.2,0-0.3s0-0.2,0.1-0.3c0-0.1,0-0.2,0-0.3s0-0.2,0-0.3c0-1.9-0.4-3.6-1.3-5.2c-0.8-1.6-1.8-3.1-2.8-4.6
				c-0.1-0.2-0.3-0.4-0.4-0.6c-0.1-0.2-0.3-0.4-0.4-0.6c-0.9-1.3-1.6-2.7-2.3-4.1c-0.7-1.4-1-2.9-1-4.4c0-0.7,0.1-1.4,0.3-2.1
				c0.2-0.7,0.4-1.5,0.8-2.3c1-2.8,2.4-5.4,4.5-7.8c2-2.4,4.1-4.6,6.3-6.5c0,0,0.1-0.1,0.2-0.1c0.1,0,0.1-0.1,0.2-0.1l17.4,3.6V33.8
				z M89.5,36.2c0,0-0.1,0-0.1,0c0,0-0.1,0-0.1,0c-0.8,0-1.4,0.3-1.8,0.8c-0.4,0.5-0.8,1.1-1.2,1.7c0,0-0.1,0.1-0.1,0.1
				c0,0-0.1,0.1-0.1,0.1c-0.2,0.4-0.4,0.8-0.7,1.2c-0.3,0.4-0.6,0.7-1,1c-0.8,1.1-1.3,2.1-1.6,3.2c-0.3,1.1-0.5,2.1-0.5,3.1
				c0,1.8,0.4,3.6,1.2,5.4c0.8,1.8,1.7,3.6,2.7,5.3c0.2,0.4,0.5,0.9,0.7,1.3c0.2,0.4,0.4,0.8,0.7,1.3c0.7,1.3,1.3,2.7,1.8,4.1
				c0.5,1.4,0.7,2.7,0.7,4.1c0,1.4-0.4,2.8-1.1,4.2c-0.7,1.4-1.9,2.9-3.7,4.5l0.7,0.7c2.3-1.3,3.8-2.8,4.8-4.3
				c0.9-1.5,1.4-3.1,1.4-4.7c0-1.8-0.4-3.7-1.2-5.6c-0.8-1.9-1.7-3.8-2.7-5.8c-0.2-0.4-0.4-0.8-0.6-1.2c-0.2-0.4-0.4-0.8-0.6-1.2
				c-0.7-1.4-1.3-2.9-1.8-4.3c-0.5-1.4-0.8-2.9-0.9-4.2c0-1.1,0.3-2.1,0.9-3.1c0.6-1,1.2-1.9,1.8-2.8c0.2-0.2,0.4-0.5,0.5-0.7
				c0.2-0.2,0.3-0.4,0.5-0.7c0.4-0.6,0.7-1.2,1-1.7c0.3-0.6,0.5-1.2,0.6-1.7C89.6,36.2,89.6,36.2,89.5,36.2z"/>
			<path class="st2" d="M152.5,35.5c-0.4,1.5-0.8,3.1-1.2,4.6c-0.4,1.2-0.7,2.4-1,3.6c-0.3,1.2-0.5,2.4-0.7,3.6
				c-0.7,0-1.4-0.1-2.1-0.2c-0.7-0.1-1.4-0.3-2.1-0.4c-0.7-0.1-1.4-0.3-2.1-0.4c-0.7-0.1-1.5-0.2-2.3-0.2c-0.2,0-0.5,0-0.8,0
				c-0.3,0-0.5,0-0.8,0.1c-0.3,3.1-0.6,6.1-0.7,9c-0.1,2.9-0.2,5.8-0.2,8.7c0,2.2,0,4.5,0.1,6.7c0.1,2.3,0.1,4.6,0.2,6.9l0.9,7.3
				h-19.4l-0.6-0.9c0.3-2.4,0.5-4.8,0.8-7.1c0.2-2.3,0.4-4.7,0.6-7c0.1-2.3,0.3-4.6,0.4-7c0.1-2.4,0.1-4.7,0.1-7.1
				c0-1.7,0-3.5,0-5.2c-0.1-1.7-0.2-3.5-0.3-5.3c-0.3-0.1-0.6-0.2-0.9-0.2c-0.3,0-0.6-0.1-0.8-0.1c-0.3,0-0.6,0-0.9,0s-0.6,0-0.9,0
				c-0.8,0-1.5,0-2.3,0.1c-0.8,0.1-1.5,0.2-2.2,0.3c-0.8,0.1-1.5,0.3-2.2,0.4c-0.7,0.1-1.4,0.1-2.2,0.1c-0.3,0-0.6,0-0.9,0
				c-0.3,0-0.6-0.1-0.9-0.1c0.2-0.7,0.5-1.4,0.6-2.2c0.2-0.7,0.4-1.4,0.6-2.2c0,0,0-0.1,0-0.1s0-0.1,0.1-0.1
				c0.5-1.9,1.1-3.8,1.7-5.7c0.6-1.9,1.3-3.7,2.1-5.4c3.1,0.4,6.2,0.7,9.4,0.9c3.2,0.1,6.4,0.2,9.7,0.2c1.3,0,2.7,0,4.1,0
				c1.4,0,2.7,0,4.1,0c0.4,0,0.9,0,1.3,0c0.5,0,0.9,0,1.4,0c1.8,0,3.6-0.1,5.4-0.1c1.8,0,3.6,0,5.4,0.1
				C153.1,32.4,152.9,34,152.5,35.5z M120.5,36.5c-0.1,0.1-0.4,0.3-0.7,0.3c-0.3,0.1-0.7,0.1-1,0.2c0,0-0.1,0-0.2,0
				c-0.1,0-0.1,0-0.2,0c-0.6,0.1-1.1,0.2-1.6,0.4c-0.5,0.2-0.7,0.6-0.7,1.2c0,0,0,0.1,0,0.1s0,0.1,0,0.1c0.6,0.1,1.3,0.2,1.9,0.2
				c0.7,0,1.3,0,2,0c0.4,0,0.9,0,1.3,0c0.4,0,0.9,0,1.3-0.1c0.4,0,0.9,0,1.3,0c0.4,0,0.8,0,1.2,0c0.7,0,1.3,0,2,0.1
				c0.6,0,1.2,0.1,1.8,0.2v38.7l2.4,0.1l0.1-37.9l0.4-0.9h11.4l2.1-2.7L120.5,36.5z"/>
			<path class="st2" d="M200.5,37.9c2,5,4.1,10.6,6.4,16.8c0.2,0.4,0.4,0.9,0.5,1.3c0.2,0.5,0.3,0.9,0.5,1.3
				c2.3,6.2,4.4,12,6.2,17.4c1.8,5.4,2.8,8.6,2.9,9.6h-17.6c-0.4-0.4-0.7-0.9-1.1-1.5c-0.3-0.6-0.6-1.1-0.9-1.6
				c-0.5-1.2-0.9-2.7-1.4-4.5c-1,0.2-2.1,0.3-3.4,0.4c-1.3,0-2.6,0.1-3.9,0.1c-0.1,0-0.2,0-0.3,0c-0.1,0-0.2,0-0.3,0
				c-0.8,0-1.5,0-2.3,0c-0.8,0-1.5,0-2.2,0c-0.8,0-1.5,0-2.3,0c-0.7,0-1.4,0-2,0c-0.2,0-0.4,0-0.6,0c-0.2,0-0.4,0-0.6,0
				c-0.2,0.3-0.4,0.8-0.5,1.5c-0.2,0.6-0.4,1.3-0.6,2c-0.3,1.1-0.6,2-1,2.8c-0.4,0.8-0.8,1.2-1.2,1.1L159,84.3c0,0-0.1-0.1-0.1-0.2
				c0-0.1,0-0.2,0-0.4c0-1.5,1.2-5.2,3.5-11.2c2.3-6,4.9-12.4,7.7-19.3c1.7-4.3,3.4-8.5,5.1-12.6c1.7-4.1,3-7.6,4.1-10.6
				c0.8,0,1.9,0.1,3.1,0.1c1.3,0,2.6,0.1,4.1,0.1c0.2,0,0.4,0,0.6,0c0.2,0,0.4,0,0.6,0c0.9,0,1.8,0,2.7,0c0.9,0,1.7,0,2.5,0
				c1,0,1.8,0,2.4,0c0.7,0,1.2,0,1.4,0c0.1,0,0.2,0,0.3,0C197.3,30.3,198.5,32.9,200.5,37.9z M189.7,37.1c-0.5,0-1,0-1.4,0
				c-0.4,0-0.8,0-1.2,0c-0.4,0-0.9-0.1-1.3-0.3c-0.2,0.4-0.4,0.9-0.6,1.3c-0.2,0.4-0.4,0.8-0.6,1.2c-2.8,6.4-5.5,12.8-8.2,19.2
				c-2.7,6.4-5.2,12.8-7.6,19.3c0,0,0.1,0,0.1,0c0,0,0.1,0,0.1,0c0.2,0,0.3,0,0.4,0.1c0.1,0.1,0.1,0.2,0.2,0.3c0,0,0,0.1,0,0.1
				c0,0,0,0.1,0,0.1c0,0,0,0,0-0.1c0-0.1,0.1-0.3,0.2-0.6c0.1-0.3,0.3-0.7,0.6-1.3c0.3-0.6,0.6-1.2,0.9-1.9c0-0.1,0.1-0.3,0.1-0.4
				c0-0.1,0.1-0.2,0.1-0.4c0.3-0.6,0.6-1.2,0.9-1.7c0.3-0.5,0.5-0.9,0.7-1l29.4-0.2c0.7,1.1,1.2,2,1.6,2.7c0.2,0.4,0.4,0.8,0.6,1.2
				c0.2,0.4,0.4,0.8,0.5,1.2c0.1,0.3,0.2,0.7,0.3,1c0.1,0.3,0.2,0.6,0.2,0.9c0.2,0.2,0.5,0.3,0.8,0.2c0.3,0,0.5-0.3,0.8-0.6
				c-1.7-4.6-3.5-9.2-5.4-13.8c-1.9-4.6-3.8-9.2-5.7-13.8c-0.9-2.1-1.7-4.1-2.6-6.2c-0.8-2-1.7-4.1-2.5-6.1
				C190.7,37.2,190.2,37.1,189.7,37.1z M202.1,69.2h-27.6c0.6-1.6,1.3-3.5,2.2-5.7c0.9-2.2,1.8-4.4,2.7-6.7c0.1-0.2,0.2-0.5,0.3-0.8
				c0.1-0.3,0.2-0.5,0.3-0.8c1.7-4.1,3.9-9.4,6.8-15.8c0.1-0.4,0.3-0.6,0.6-0.7c0.3-0.1,0.5-0.1,0.8-0.1c0.1,0,0.2,0,0.3,0
				c0.1,0,0.1,0,0.2,0c0.1,0,0.3,0,0.4,0c0.1,0,0.3,0,0.4,0c0.1,0,0.2,0,0.3,0c0.1,0,0.1,0,0.2,0L202.1,69.2z M192.4,62.6
				c-0.2-0.7-0.4-1.5-0.7-2.3c-0.4-1.2-1-2.4-1.6-3.6c-0.6-1.2-1.3-2.2-2.2-3.1c-0.2,0.5-0.5,1-0.8,1.5c-0.3,0.5-0.5,1-0.8,1.5
				c-0.8,1.3-1.5,2.7-2.1,4.1c-0.6,1.4-0.9,2.9-0.9,4.4c0.3,0,0.6-0.1,0.8-0.1c0.3,0,0.5,0,0.8,0c0.4,0,0.9,0,1.3,0.1
				c0.4,0,0.8,0.1,1.2,0.1c0.2,0,0.4,0.1,0.6,0.1c0.2,0,0.4,0,0.6,0c0.2,0,0.4,0,0.6,0c0.2,0,0.4,0,0.6,0c0.5,0,1,0,1.5-0.1
				c0.5-0.1,1-0.3,1.5-0.5C192.8,64,192.6,63.3,192.4,62.6z"/>
			<path class="st2" d="M224.2,31.7c0.1,0,0.2,0,0.3,0c0.1,0,0.2,0,0.3,0c0.1,0,0.2,0,0.3,0c1.7,0,3.5-0.1,5.3-0.3
				c1.8-0.2,3.7-0.4,5.5-0.6c0.6,0,1.2-0.1,1.8-0.2c0.6-0.1,1.2-0.1,1.8-0.2c1.3-0.1,2.7-0.3,4-0.4c1.3-0.1,2.7-0.1,4-0.1
				c2.7,0,5.4,0.3,8,0.9c2.6,0.6,4.9,1.9,7,3.7c2.3,1.7,3.9,3.9,4.9,6.4s1.5,5.1,1.5,7.8c0,0.4,0,0.8,0,1.2s0,0.8,0,1.2
				c0,0.4-0.1,0.8-0.1,1.2c0,0.4-0.1,0.8-0.2,1.2c-0.8,1.4-1.7,2.7-2.9,4c-1.2,1.3-2.4,2.5-3.6,3.6c-0.5,0.5-1,0.9-1.5,1.4
				c-0.5,0.4-1,0.9-1.4,1.3c0.7,1.6,1.6,3.2,2.6,4.7c1,1.5,2,3,3.1,4.5c0,0,0.1,0.1,0.1,0.1c0,0,0,0.1,0,0.1
				c1.2,1.7,2.4,3.4,3.5,5.1c1.1,1.7,2,3.6,2.7,5.5c-1.1,0.4-2.2,0.7-3.4,0.9c-1.2,0.1-2.4,0.2-3.6,0.2c-0.4,0-0.9,0-1.4,0
				c-0.5,0-0.9,0-1.4,0c-0.5,0-0.9-0.1-1.4-0.1c-0.5,0-0.9-0.1-1.3-0.1c-0.5,0-0.9,0-1.4-0.1c-0.5,0-0.9-0.1-1.3-0.1
				c-0.9-1.1-1.7-2.1-2.6-3.3c-0.8-1.1-1.7-2.3-2.6-3.4c0,0,0-0.1,0-0.1c0,0-0.1-0.1-0.1-0.1c-1.3-1.9-2.7-3.7-4.1-5.5
				c-1.4-1.8-2.8-3.4-4.3-4.8c0,0-0.1,0-0.1,0c0,0-0.1,0-0.1,0c-0.5,0-0.8,0.2-0.9,0.5c-0.1,0.3-0.1,0.7-0.1,1c0,0.2,0,0.5,0,0.7
				c0,0.2-0.1,0.4-0.3,0.6l-0.7,14h-16.8l-0.7-0.9c0.2-2.1,0.4-4.1,0.5-6.2c0.1-2.1,0.2-4.1,0.3-6.2c0.2-4,0.3-8,0.3-12
				c0-4-0.1-8-0.1-11.9c0-2.5-0.1-5-0.1-7.4s0-4.9,0-7.3l0.7-0.4C224.1,31.7,224.2,31.7,224.2,31.7z M255.7,38.4
				c-1.5-1.2-3.2-1.9-5-2.3c-1.2-0.2-2.4-0.4-3.6-0.5c-1.2-0.1-2.4-0.1-3.7-0.1c-2,0-4,0.1-6.1,0.4c-2,0.2-4.1,0.6-6.2,0.9L231,76.4
				v0.1c0,0.3,0.2,0.6,0.4,0.8c0.2,0.2,0.4,0.4,0.7,0.4c0.1,0,0.3,0,0.4-0.1c0.1,0,0.2-0.1,0.3-0.3V62.5c3.6,0,6.4-0.1,8.6-0.1
				c1.2,0,2.3-0.1,3.3-0.1c1.1,0,2-0.1,2.8-0.1c0.6,0.9,1.2,1.7,1.7,2.6c0.6,0.9,1.2,1.7,1.7,2.6c0,0,0.1,0.1,0.1,0.2
				c0,0.1,0.1,0.2,0.1,0.3c1.2,1.9,2.5,3.7,3.8,5.6c1.3,1.8,2.8,3.6,4.4,5.2c0,0,0.1,0,0.1,0c0,0,0.1,0,0.2,0c0,0,0.1,0,0.1,0
				c0,0,0.1,0,0.1,0s0.1,0,0.1,0c0,0,0.1,0,0.1,0s0.1,0,0.1,0c0,0,0.1-0.1,0.2-0.1s0.1-0.1,0.1-0.1c-0.5-0.7-1.1-1.5-1.6-2.2
				c-0.5-0.7-1.1-1.5-1.6-2.2c-0.1-0.2-0.3-0.4-0.4-0.6c-0.1-0.2-0.3-0.4-0.4-0.6c-1.3-1.9-2.7-3.7-4-5.6s-2.5-3.8-3.5-5.8
				c0.4-0.1,0.8-0.3,1.2-0.4c0.4-0.1,0.8-0.3,1.2-0.5c1.7-0.8,3.3-1.8,4.8-3c1.5-1.2,2.7-2.7,3.5-4.3c0.2-0.6,0.4-1.3,0.6-1.9
				c0.2-0.7,0.3-1.3,0.3-2c0-0.2,0.1-0.5,0.1-0.7c0-0.2,0-0.4,0-0.7c0-0.9-0.1-1.8-0.3-2.7c-0.2-0.9-0.5-1.7-1-2.5
				C258.5,41,257.2,39.6,255.7,38.4z M235.2,38c0.6,0,1.3-0.1,2-0.1c0.7-0.1,1.4-0.2,2.1-0.2c0.7,0,1.4-0.1,2.1-0.1c0.5,0,1,0,1.5,0
				c0.5,0,1,0,1.5,0c2.8,0,5.5,0.4,7.9,1.3c2.4,0.8,4.3,2.5,5.7,5.1c0.2,0.5,0.4,1.1,0.6,1.7c0.1,0.6,0.2,1.2,0.3,1.8
				c0,0.3,0.1,0.6,0.1,0.9c0,0.3,0,0.6,0,0.9c0,0.9-0.1,1.7-0.3,2.6s-0.6,1.6-1,2.3c-1.8,2.7-4.1,4.6-6.9,5.5s-5.7,1.5-8.7,1.7
				c-0.9,0-1.8,0.1-2.7,0.1c-0.9,0-1.8,0-2.7,0c0,0-0.1,0-0.2,0s-0.2,0-0.3,0c-0.2,0-0.4,0-0.5,0c-0.2,0-0.3,0-0.5,0
				c-0.2,0-0.4,0-0.5,0c-0.2,0-0.3,0-0.5,0l-1.1-0.9l0.4-22C233.9,38.1,234.5,38,235.2,38z M248.5,42.7c-1.4-0.8-2.9-1.3-4.4-1.3
				c-0.6,0-1.1,0.1-1.7,0.2c-0.6,0.1-1.1,0.3-1.6,0.6c0,0.4,0.1,0.9,0.1,1.3c0,0.4,0,0.8,0,1.2s0,0.8,0,1.2c0,0.4,0,0.8,0,1.2
				c0,0.4-0.1,0.8-0.1,1.2c0,0.4,0,0.8,0,1.2c0,1.1,0.1,2.1,0.2,3.2c0.1,1.1,0.4,2.1,0.9,3.2c0.3-0.1,0.6-0.2,0.9-0.2
				c0.3,0,0.6-0.1,0.9-0.1c0.6-0.1,1.3-0.2,1.9-0.4c0.6-0.2,1.2-0.5,1.7-1c0,0,0.1-0.1,0.2-0.1s0.1-0.1,0.2-0.1
				c1.2-0.7,2.2-1.6,3.1-2.7c0.9-1.1,1.4-2.2,1.4-3.5c0-0.1,0-0.3,0-0.4s0-0.3-0.1-0.4c0-0.1,0-0.3-0.1-0.4c0-0.1-0.1-0.3-0.1-0.4
				C251.1,44.7,250,43.5,248.5,42.7z"/>
			<path class="st2" d="M321.1,35.5c-0.4,1.5-0.8,3.1-1.2,4.6c-0.4,1.2-0.7,2.4-1,3.6c-0.3,1.2-0.5,2.4-0.7,3.6
				c-0.7,0-1.4-0.1-2.1-0.2c-0.7-0.1-1.4-0.3-2.1-0.4c-0.7-0.1-1.4-0.3-2.1-0.4c-0.7-0.1-1.5-0.2-2.3-0.2c-0.2,0-0.5,0-0.8,0
				c-0.3,0-0.5,0-0.8,0.1c-0.3,3.1-0.6,6.1-0.7,9c-0.1,2.9-0.2,5.8-0.2,8.7c0,2.2,0,4.5,0.1,6.7c0.1,2.3,0.1,4.6,0.2,6.9l0.9,7.3
				h-19.4l-0.6-0.9c0.3-2.4,0.5-4.8,0.8-7.1c0.2-2.3,0.4-4.7,0.6-7c0.1-2.3,0.3-4.6,0.4-7c0.1-2.4,0.1-4.7,0.1-7.1
				c0-1.7,0-3.5,0-5.2c-0.1-1.7-0.2-3.5-0.3-5.3c-0.3-0.1-0.6-0.2-0.9-0.2c-0.3,0-0.6-0.1-0.8-0.1c-0.3,0-0.6,0-0.9,0s-0.6,0-0.9,0
				c-0.8,0-1.5,0-2.3,0.1c-0.8,0.1-1.5,0.2-2.2,0.3c-0.8,0.1-1.5,0.3-2.2,0.4c-0.7,0.1-1.4,0.1-2.2,0.1c-0.3,0-0.6,0-0.9,0
				c-0.3,0-0.6-0.1-0.9-0.1c0.2-0.7,0.5-1.4,0.6-2.2c0.2-0.7,0.4-1.4,0.6-2.2c0,0,0-0.1,0-0.1s0-0.1,0.1-0.1
				c0.5-1.9,1.1-3.8,1.7-5.7c0.6-1.9,1.3-3.7,2.1-5.4c3.1,0.4,6.2,0.7,9.4,0.9c3.2,0.1,6.4,0.2,9.7,0.2c1.3,0,2.7,0,4.1,0
				c1.4,0,2.7,0,4.1,0c0.4,0,0.9,0,1.3,0c0.5,0,0.9,0,1.4,0c1.8,0,3.6-0.1,5.4-0.1s3.6,0,5.4,0.1C321.7,32.4,321.5,34,321.1,35.5z
				 M289,36.5c-0.1,0.1-0.4,0.3-0.7,0.3c-0.3,0.1-0.7,0.1-1,0.2c0,0-0.1,0-0.2,0c-0.1,0-0.1,0-0.2,0c-0.6,0.1-1.1,0.2-1.6,0.4
				c-0.5,0.2-0.7,0.6-0.7,1.2c0,0,0,0.1,0,0.1s0,0.1,0,0.1c0.6,0.1,1.3,0.2,1.9,0.2c0.7,0,1.3,0,2,0c0.4,0,0.9,0,1.3,0
				s0.9,0,1.3-0.1c0.4,0,0.9,0,1.3,0c0.4,0,0.8,0,1.2,0c0.7,0,1.3,0,2,0.1c0.6,0,1.2,0.1,1.8,0.2v38.7l2.4,0.1l0.1-37.9l0.4-0.9
				h11.4l2.1-2.7L289,36.5z"/>
		</g>
	</g>
</g>
<g>
</g>
<g>
</g>
<g>
</g>
<g>
</g>
<g>
</g>
<g>
</g>
</svg>
