<?xml version="1.0" encoding="utf-8"?>
<!-- Generator: Adobe Illustrator 26.3.1, SVG Export Plug-In . SVG Version: 6.00 Build 0)  -->
<svg version="1.1" id="Layer_1" xmlns="http://www.w3.org/2000/svg" xmlns:xlink="http://www.w3.org/1999/xlink" x="0px" y="0px"
	 viewBox="0 0 1125 571.9" style="enable-background:new 0 0 1125 571.9;" xml:space="preserve">
<style type="text/css">
	.st0{fill:#148843;}
</style>
<path class="st0" d="M0,571.9h1125V62.5c-1.5-0.1-3.1,0.1-4.8,0.9c-4.2,2.1-7.9,4.7-11.1,7.9c-9.4-13.7-17.7-28-24.7-43.1
	c-2.9-6.1-13.3-4.6-14.6,1.9c-1.9,9.5-3.7,19-5.6,28.5c-5.4-4.6-10.8-9.3-16.2-13.9c-4.4-3.8-11.7-2.6-13.4,3.5c0,0,0,0.1,0,0.1
	c-6.2-14.8-16.6-27.8-29.9-37.2c-4.7-3.3-12.7,1-12,6.9c2.1,20.2-1.8,40-11.1,57.6c-5.2-10.5-10.4-21-15.7-31.5
	c-3-5.9-10.5-4.4-13.8,0c-3.4,4.5-6.7,9-10.1,13.5c-2.1-22-13.6-42.9-31.7-56.4c-5.4-4-11.5,1.6-12,6.9
	c-1.6,17.6-5.1,34.9-10.3,51.7c-4.8-7.6-9.2-15.4-13.2-23.5c-3-6.2-13-4.5-14.6,1.9c-3.1,12.3-7.4,24.2-13,35.4
	c-0.7-10.6-1.5-21.1-2.2-31.7c-0.6-8.4-14-11.6-15.7-2.1c-3.2,17.5-12.4,33-26,44c-0.4-19.5,6.3-38.7,18.3-54.3
	c3.7-4.8-1.3-12.4-6.9-12c-17.9,1-29.9,15.1-36.7,30.6c-1.7,4-3.2,8.3-4.7,12.8c-0.9-13.4-5.1-26.5-12.7-38.1
	c-3.6-5.5-12.9-5.1-14.6,1.9c-3.3,13.3-8.7,25.7-16.2,36.9c-3.3-17.3-8.9-34-16.7-50c-2.3-4.8-9.1-4.9-12.6-1.6
	c-8.7,8.2-14.6,18.7-17.1,30.1c-4.7-1.1-9.8-0.7-14.6,1.1c-4.7,1.8-8.4,4.7-11.6,8.3c-2.2-7.7-5.1-15.2-8.5-22.5
	c-3.2-6.9-12.4-3.8-14.6,1.9c-5.2,13.5-10.4,26.9-15.6,40.4c-8.1-4.3-18.2-5-26.7-1.6c-2-2.8-4-5.6-6-8.4c-2.6-3.7-9.1-6-12.6-1.6
	c-0.5,0.6-1,1.2-1.4,1.8c-4.2-11.7-10.1-22.7-17.4-32.8c-4.6-6.3-14.6-4.4-14.9,4c-0.2,5.9-1.3,11.6-3.2,17
	c-4-3.7-8.3-7.3-12.7-10.6c-7.2-5.4-15.9-12.2-25.4-8.8c-8.1,2.9-12.3,13.2-16.5,20c-2.4,3.9-4.8,7.9-7.2,11.8
	c-3.9-16.2-6.6-32.7-7.8-49.4C466,1.5,454.2,0.1,451,8.6c-5.1,13.4-10.1,26.9-15.2,40.3c-2.4-0.6-4.6-1.8-6.2-3.9
	c-3.6-4.8-10.3-5.5-13.8,0c-4.7,7.4-9.5,14.9-14.2,22.3c-3.9-5.5-7.2-11.4-9.9-17.7c-3.4-7.9-14.5-3-14.9,4
	c-0.3,5.2-1.5,10.2-3.4,14.9c-1.9-22.3-7.9-44.1-17.4-64.6c-1.7-3.6-6.6-4.7-10-3.3c-4,1.7-5.2,5.4-4.6,9.4c1.9,13.8,0,27.7-5,40.6
	c-2.2-4.8-4.4-9.6-6.6-14.3c-3.2-7-12.3-3.7-14.6,1.9c-4.6,11.1-10.3,21.8-16.8,32c-1.7-10.7-3.5-21.4-5.2-32.1
	c-1.3-8-13.6-7.3-15.4,0c-3.1,12.5-11.1,23-21.9,29.2c0.7-21.9-4.3-43.4-15-63c-3.8-6.9-15.2-3.9-14.9,4c0.5,13.6-0.3,27.1-2.5,40.4
	c-4.1-12.6-9.8-24.6-17.1-35.8c-4.8-7.4-17.1-2.9-14.6,6.2c4.5,16.2,3.9,33.2-1.6,48.8c-5.5-5.9-11.6-11.1-18.4-15.7
	c-5.2-3.5-12,1.2-12,6.9c-0.1,5.2-1.5,10.3-4.1,14.8c1.4-23.3-5.3-47-19.5-65.8c-5.2-6.9-16.9-3.2-14.6,6.2c4,16.1,3.1,32.7-2.1,48
	c-5.5-9.5-14.5-16.9-25.3-20.1c-5.4-1.6-9.6,2.7-10.1,7.7c-0.3,2.7-0.7,5.4-1.2,8.1C77.2,45.9,69,34.8,58.7,25.7
	C54.5,22,46.6,23,45.3,29.2c-1.5,7.4-4.2,14.4-8,20.7c-3.2-4.6-6.3-9.1-9.5-13.7c-4-5.8-15.9-4.6-14.9,4c1.8,14.9-2.7,29.3-13,40.1
	V93V571.9z"/>
<g>
</g>
<g>
</g>
<g>
</g>
<g>
</g>
<g>
</g>
<g>
</g>
</svg>
