<?xml version="1.0" encoding="utf-8"?>
<!-- Generator: Adobe Illustrator 26.3.1, SVG Export Plug-In . SVG Version: 6.00 Build 0)  -->
<svg version="1.1" id="Layer_1" xmlns="http://www.w3.org/2000/svg" xmlns:xlink="http://www.w3.org/1999/xlink" x="0px" y="0px"
	 viewBox="0 0 897.2 481.9" style="enable-background:new 0 0 897.2 481.9;" xml:space="preserve">
<style type="text/css">
	.st0{fill:#A59379;}
	.st1{fill:#010101;}
	.st2{fill:#E8D2AD;}
	.st3{fill:#221E19;}
	.st4{fill:#FDB714;}
	.st5{fill:#AA4925;}
	.st6{fill:#FFFFFF;}
</style>
<g>
	<g>
		<g>
			<path class="st0" d="M897.1,437.4c-0.7-6.4-4.6-12.4-7-18.6c-9.7-51.5-2.5-104.3-5.8-156.2c-8.8-4.6-6.1-4.1-13.6-6
				c3.2,51.7-3.1,104.2,6.4,155.4c2.4,6.2,6.3,12.2,7,18.6c0.7,6.4-2.8,13.6-11.4,16.4c-127.2,9.6-258.3,28.8-383.6,11.2
				c-6.8-1.5-13.3-0.7-19.4,1.6c-81,4.1-163.4,9.4-244.7,8c-55.5-9.6-111.4-2.6-167.8-1.2c-11.6,0-24.3-0.8-32.7-6.2
				c-0.7-0.5-1.4-1-2-1.5c2.9,3.6,6.6,6.9,10.8,9.6c8.4,5.4,23.3,11.9,34.9,11.9c56.4-1.3,112.3-8.3,167.8,1.2
				c81.3,1.4,163.7-3.9,244.7-8c6.1-2.3,12.6-3.1,19.4-1.6c125.3,17.6,256.5-1.6,383.6-11.2C892.3,458,897.8,443.8,897.1,437.4z"/>
		</g>
		<g>
			<path class="st0" d="M25.2,355.2c0.1,0.1,0.2,0.2,0.3,0.3c0.2,0,0.4-0.1,0.6-0.1C25.8,355.4,25.5,355.3,25.2,355.2z"/>
			<g>
				<path class="st1" d="M24.1,356.3c0.1,0.1,0.1,0.1,0.2,0.2c0,0,0.1,0.1,0.1,0.1c0.2,0.2,0.4,0.3,0.7,0.4c0.3,0.1,0.5,0,0.8,0
					c0.2,0,0.4-0.1,0.6-0.1c0.1-0.1,0.2-0.1,0.4-0.2c0.2-0.1,0.3-0.2,0.4-0.4c0.1-0.1,0.2-0.2,0.2-0.3c0.1-0.2,0.1-0.4,0.1-0.6
					c0-0.1,0-0.3-0.1-0.4c-0.1-0.1-0.1-0.2-0.2-0.4c-0.1-0.2-0.2-0.3-0.4-0.4c-0.1-0.1-0.3-0.2-0.5-0.3c-0.3-0.1-0.6-0.2-0.9-0.2
					c-0.2-0.1-0.4-0.1-0.6,0c-0.2,0-0.4,0.1-0.6,0.2c-0.2,0.1-0.3,0.2-0.4,0.4c-0.1,0.1-0.2,0.3-0.3,0.5c0,0.1,0,0.3-0.1,0.4
					c0,0.3,0.1,0.5,0.2,0.8C24,356.1,24,356.2,24.1,356.3c0.2,0.2,0.4,0.3,0.7,0.4c0.3,0.1,0.6,0.2,0.9,0.2c0-1,0-1.9,0-2.9
					c-0.2,0-0.4,0.1-0.6,0.1c0.5,0.1,1,0.3,1.5,0.4c-0.1-0.1-0.2-0.2-0.3-0.3c-0.1-0.1-0.3-0.2-0.5-0.3c-0.2-0.1-0.4-0.1-0.6-0.1
					c-0.2,0-0.4,0-0.6,0.1c-0.2,0.1-0.3,0.2-0.5,0.3c-0.1,0.1-0.2,0.2-0.2,0.3c-0.1,0.2-0.2,0.5-0.2,0.8c0,0.1,0,0.3,0.1,0.4
					C23.8,355.9,23.9,356.1,24.1,356.3z"/>
			</g>
		</g>
		<g>
			<path class="st2" d="M57.3,466.7c56.4-1.3,112.3-8.3,167.8,1.2c81.3,1.4,163.7-3.9,244.7-8c6.1-2.3,12.6-3.1,19.4-1.6
				c125.3,17.6,256.5-1.6,383.6-11.2c8.6-2.8,12.1-10,11.4-16.4c-0.7-6.4-4.6-12.4-7-18.6c-9.5-51.3-3.1-103.8-6.4-155.4
				c0-0.2,0-0.4,0-0.6c-37.5-6-77.4-5.2-114.4,2.3c-24.7,6.3-47.6,9.3-73.7,5.7c-43.4-2.8-87,6.8-130.4,3.8
				c-16.8-1.2-33.2-4.2-50-5.8c-142-6.7-363.6,6.1-491.3,4.9C-8.2,271.6,4,297.9,2,319.3c0.2,13.9,3.9,31.3,23.1,35.9
				c0.3,0.1,0.6,0.2,0.9,0.2c-0.2,0-0.4,0.1-0.6,0.1c-11.9,1.9-14.3,12.8-14,21.2c3.7,19.1-4.9,67.9,11.1,82.2
				c0.6,0.6,1.3,1.1,2,1.5C33,465.9,45.7,466.7,57.3,466.7z"/>
		</g>
	</g>
	<g>
		<path class="st3" d="M94.6,384.1c1.4,0.4,2.9,0.7,4.3,0.8c1.4,0.2,2.9,0.2,4.3,0.2c1.8,0,3.7-0.1,5.5-0.3c1.8-0.2,3.7-0.5,5.5-0.8
			c1.8-0.2,3.5-0.5,5.2-0.7c1.7-0.2,3.5-0.3,5.2-0.3c-0.2,1.4-0.6,2.7-1,4c-0.4,1.3-0.9,2.7-1.4,4c-0.4,1-0.8,2.1-1.3,3.2
			s-0.9,2.2-1.3,3.3c-0.9,1.9-1.7,3.9-2.5,5.8c-0.8,2-1.4,4-2,6.1l-52.1,0.4l-0.8-2c0.7-5.3,1.2-10.7,1.6-16.3
			c0.3-5.6,0.5-11.2,0.6-16.8c0-0.8,0-1.6,0-2.4c0-0.8,0-1.6,0-2.4c0-8.8-0.2-17.5-0.7-26c-0.4-8.5-0.9-16.6-1.5-24.3l1.4-1.2
			l30.8,1.2V384.1z M77.6,331.2l-0.2,66.6l29.4,0.7c0.2,0,0.3,0,0.5-0.1c0.2,0,0.4-0.1,0.6-0.2c0.3-0.2,0.6-0.5,1-0.7
			c0.3-0.2,0.6-0.5,0.7-0.8c0.1-0.2,0.1-0.3,0.1-0.5c0-0.2,0-0.3-0.1-0.5c-0.6-0.1-1.1-0.1-1.7-0.1c-0.6,0-1.2,0-1.8,0
			c-1.1,0-2.3,0-3.5,0.1c-1.2,0-2.4,0.1-3.6,0.2c-0.6,0-1.3,0-1.9,0.1c-0.6,0-1.2,0.1-1.9,0.1c-0.6,0.1-1.3,0.1-1.9,0.1
			s-1.2,0-1.9,0c-1.8,0-3.4-0.1-5-0.2c-1.6-0.2-3.2-0.4-4.7-0.7c-0.1-2.2-0.2-4.5-0.2-6.8c-0.1-2.3-0.1-4.7-0.1-7.1s0-4.8,0.1-7.3
			c0-2.4,0.1-4.9,0.2-7.4c0-1.5,0-3,0-4.5c0-1.5,0-3,0.1-4.5c0-1,0-2.1,0-3.1c0-1,0-2,0-2.9c0-3.5-0.1-7-0.2-10.4
			c-0.1-3.4-0.3-6.7-0.7-10H77.6z"/>
		<path class="st3" d="M136,319.5c1.2-0.1,2.3-0.2,3.4-0.2c0.2,0,0.3,0,0.4-0.1c0.1,0,0.3-0.1,0.4-0.1c2.5-0.2,5-0.3,7.6-0.5
			c2.6-0.2,5.2-0.2,7.8-0.2c1.6,0,3.2,0,4.7,0.1c1.6,0.1,3.2,0.2,4.9,0.4c0,4.6-0.1,9.2-0.2,13.9c-0.2,4.7-0.3,9.4-0.4,14.1
			c-0.1,1.8-0.1,3.5-0.2,5.2c0,1.7-0.1,3.5-0.2,5.2c-0.1,3.5-0.2,7-0.2,10.6c-0.1,3.5-0.1,7-0.1,10.6c0,5.1,0.1,10.2,0.3,15.1
			c0.2,5,0.6,9.8,1.1,14.5c-1.4,0.1-2.9,0.2-4.4,0.4c-1.5,0.2-3.1,0.3-4.7,0.5c-1,0.2-1.9,0.3-2.9,0.4c-1,0.1-2,0.2-2.9,0.2
			c-1.1,0.1-2.3,0.2-3.4,0.2c-1.2,0.1-2.3,0.1-3.4,0.1c-1.8,0-3.5-0.1-5.3-0.3c-1.8-0.2-3.4-0.6-5-1.1c0.4-7.9,0.8-15.5,1.1-22.7
			c0.3-7.2,0.5-14.4,0.5-21.5c0-0.8,0-1.6,0-2.3c0-0.8,0-1.5,0-2.3c0-6.3-0.2-12.7-0.5-19.3c-0.3-6.5-0.9-13.4-1.7-20.6
			C133.7,319.7,134.8,319.6,136,319.5z M151.6,334.8c0-0.3,0.1-0.6,0.1-0.9c0-0.1,0-0.1,0-0.2c0,0,0-0.1,0-0.2
			c-0.1-0.8-0.3-1.5-0.7-2.2c-0.4-0.6-0.9-1-1.7-1c-0.2,0-0.4,0-0.6,0.1c-0.2,0.1-0.5,0.2-0.8,0.4v66h2.8l0.8-61.3
			C151.5,335.4,151.5,335.1,151.6,334.8z"/>
		<path class="st3" d="M178.5,318.5c1.1,0,2.2-0.1,3.2-0.1c1.7,0,3.3,0.1,5,0.2c1.6,0.1,3.3,0.2,5,0.3c1.1,0.1,2.2,0.2,3.4,0.2
			c1.1,0.1,2.2,0.2,3.4,0.2c2.6,4.3,5.6,8.5,9,12.5c3.4,4,7,7.9,10.7,11.8c2.2,2.2,4.3,4.5,6.4,6.7c2.1,2.2,4.1,4.4,6,6.6
			c0.3,0.4,0.6,0.8,1,1.1c0.3,0.4,0.6,0.7,1,1.1h1.6c0.4-2.1,0.7-4.2,0.8-6.2c0.2-2.1,0.2-4.2,0.2-6.2c0-2.1-0.1-4.1-0.2-6.2
			c-0.1-2-0.2-4.1-0.3-6.2c-0.2-2.1-0.3-4.2-0.4-6.2c-0.1-2.1-0.2-4.1-0.2-6.1c1.6-0.2,3.2-0.5,4.7-0.7c1.6-0.2,3.1-0.4,4.7-0.5
			c3.1-0.5,6.3-0.9,9.4-1.3c3.2-0.4,6.3-0.8,9.4-1.1l0.8,2c-0.6,7-1,14.2-1.2,21.8c-0.2,7.6-0.4,15.2-0.4,22.9s0.1,15.3,0.2,22.8
			c0.2,7.5,0.3,14.6,0.5,21.2c-1.8,0.2-3.7,0.4-5.7,0.5c-2,0.1-4.1,0.2-6.2,0.2c-2,0-4-0.1-6.1-0.2s-4-0.3-5.9-0.5
			c-1.4-1.8-2.8-3.5-4.2-5.3c-1.4-1.8-2.7-3.5-4.1-5.3c-0.4-0.5-0.8-1-1.2-1.5c-0.4-0.5-0.8-1-1.1-1.5c-3.6-4.7-7.3-9.3-11-13.7
			c-3.7-4.4-7.9-8.4-12.4-11.9l-0.7,39.2h-27.1c-0.2-0.5-0.3-1-0.4-1.5c-0.1-0.5-0.1-1.1-0.1-1.6c0-0.6,0-1.3,0.1-1.9
			c0.1-0.6,0.2-1.3,0.2-1.9c0-0.1,0-0.2,0-0.3s0-0.2,0-0.3c0.1-0.6,0.1-1.1,0.2-1.7c0-0.6,0.1-1.1,0.1-1.7c0-0.2,0-0.3,0-0.4
			s0-0.3,0-0.4c0-0.2,0-0.3-0.1-0.4c0-0.1-0.1-0.3-0.1-0.4c0.1-5.8,0.1-11.6,0.1-17.6c0-6-0.1-11.9-0.2-17.8
			c-0.1-7.2-0.2-14.4-0.5-21.5c-0.2-7.1-0.5-14.1-0.8-20.9C176.3,318.6,177.4,318.5,178.5,318.5z M235.3,380.1
			c-3.6-3.9-7.1-7.9-10.6-11.9c-1.4-1.6-2.9-3.2-4.3-4.9c-1.4-1.6-2.8-3.3-4.3-4.9c-4.2-4.9-8.6-9.7-13.1-14.6
			c-4.5-4.8-9.3-9.5-14.3-13.9c-0.1,1.8-0.1,3.5-0.1,5.3c0,1.8,0,3.6,0,5.5c0,3.4,0,6.7,0.1,10.1c0.1,3.4,0.2,6.8,0.2,10.3
			c0,0.7,0,1.5,0,2.2c0,0.8,0,1.5,0.1,2.3c0.1,4.2,0.2,8.3,0.2,12.4c0.1,4.1,0.1,8.2,0.1,12.2c0,1.5,0,3,0,4.4c0,1.4,0,2.9-0.1,4.3
			c0.2,0,0.3,0,0.4,0s0.2,0,0.3,0c0.2,0.1,0.3,0.1,0.4,0.1c0.1,0,0.2,0,0.3,0c0.2,0,0.5,0,0.7-0.1c0.2-0.1,0.4-0.2,0.5-0.5V338
			c4.1,4.4,8.1,8.7,12.1,12.8c4,4.1,7.8,8.2,11.6,12.3c3.8,4,7.6,8,11.3,12.1c3.7,4.1,7.4,8.3,11,12.6c1.5,1.8,3.1,3.7,4.6,5.6
			c1.6,1.9,3.1,3.8,4.7,5.7h2.3v-68.5c-0.1,0-0.2,0-0.2,0c-0.1,0-0.2,0-0.2,0c-0.6,0-1,0.1-1.4,0.4c-0.4,0.3-0.6,0.6-0.8,1
			l-0.6,59.2C242.6,387.6,238.9,383.9,235.3,380.1z"/>
		<path class="st3" d="M340.3,333.7c-7.8,2.8-15,6.9-21.6,12.4c-6.6,5.5-12.5,11.6-17.5,18.3c-0.2,0.5-0.4,1-0.5,1.5
			c-0.1,0.5-0.2,1.1-0.2,1.6c0,0.4,0,0.8,0.1,1.3c0.1,0.5,0.2,0.9,0.4,1.3c0.2,0.8,0.4,1.6,0.7,2.4c0.3,0.8,0.6,1.6,1,2.3
			c0.1,0.2,0.2,0.5,0.3,0.7c0.1,0.2,0.2,0.4,0.3,0.5c2.2,3,4.7,5.3,7.6,7.1c2.9,1.8,6.1,2.7,9.5,2.7c0.1,0,0.2,0,0.2,0
			c0.1,0,0.2,0,0.2,0c0.2,0,0.3,0,0.4,0l1.7-1.8l-0.2-28.3c0.9-0.2,1.8-0.3,2.6-0.5c0.9-0.2,1.8-0.3,2.6-0.4
			c0.9-0.1,1.8-0.1,2.6-0.2c0.9,0,1.8-0.1,2.6-0.1c2.8,0,5.5,0.2,8.2,0.7c2.7,0.4,5.3,1.1,7.9,2l1.7,1.9c-0.3,2.6-0.6,5.1-0.7,7.6
			c-0.2,2.5-0.2,5-0.2,7.4c0,0.8,0,1.6,0,2.5s0,1.7,0,2.5c0,0.6,0,1.1,0,1.7c0,0.6,0,1.1,0,1.6c0,1.4,0,2.7,0.1,4
			c0,1.3,0.1,2.7,0.1,4c0.1,2.5,0.1,5,0.1,7.6c0,2.6,0,5.3,0,8c-0.5-0.1-1-0.1-1.5-0.1c-0.5,0-1.1,0-1.6,0c-2.8,0-5.7,0.2-8.8,0.6
			c-3.1,0.4-6.2,0.8-9.3,1.3c-0.6,0.2-1.3,0.3-1.9,0.4c-0.6,0.1-1.2,0.2-1.9,0.2c-2.6,0.4-5.1,0.7-7.6,1c-2.5,0.3-4.9,0.4-7.3,0.4
			c-5.4,0-10.4-1-15-3.1c-4.6-2-8.5-6.1-11.5-12.2c-3-3.8-5.8-7.9-8.4-12.1c-2.6-4.2-3.8-8.8-3.8-13.6c0-0.1,0-0.2,0-0.2
			c0-0.1,0-0.2,0-0.2c1.4-11.1,6.1-21.2,14.1-30.1c8-9,17-15.6,26.9-19.9l27.6,13.4V333.7z M316.8,332.8c0-0.2,0-0.3-0.1-0.4
			c0-0.5-0.2-0.8-0.5-1c-0.4-0.2-0.8-0.3-1.3-0.3c-0.1,0-0.2,0-0.2,0c-0.1,0-0.1,0-0.2,0c0,0-0.1,0-0.2,0c-0.1,0.1-0.1,0.1-0.2,0.1
			c0,0-0.1,0-0.2,0c-7,4.6-13.2,9.9-18.7,15.8c-5.5,5.9-9.4,12.8-11.8,20.8c0.9,3.7,2.2,7.2,4,10.5c1.8,3.3,4,6.3,6.8,9.1
			c2.6,4.3,5.9,7.2,9.9,8.6c4,1.4,8.3,2.1,12.7,2c0.6,0,1.1,0,1.6,0c0.5,0,1.1,0,1.6-0.1c1.7-0.1,3.4-0.2,5-0.4
			c1.7-0.2,3.4-0.4,5-0.6c1.4-0.2,2.8-0.3,4.1-0.5c1.3-0.2,2.6-0.3,3.9-0.4l0.2-31.6l-2.5,0.1l0.1,28.2c-2,1-4.2,1.7-6.5,2
			c-2.4,0.3-4.7,0.4-7.1,0.4c-0.8,0-1.6,0-2.5-0.1c-0.8,0-1.7-0.1-2.6-0.1c-0.8,0-1.6,0-2.4-0.1c-0.8,0-1.6-0.1-2.3-0.1
			c-0.6,0-1.1,0-1.7,0c-0.6,0-1.1,0-1.7,0.1c-5.1-2.9-9.9-6.7-14.4-11.5c-4.5-4.8-7.2-10.1-8-16c2.7-7.4,6.7-13.9,11.9-19.6
			c5.2-5.7,11.2-10.6,17.9-14.9C316.7,333.2,316.8,333,316.8,332.8z"/>
		<path class="st3" d="M396,319.4c3.4-0.5,6.8-0.8,10.2-1c0.5,0,1,0,1.4,0s1,0,1.4,0c7.6,0,14.9,1.4,21.8,4.2
			c7,2.8,12.5,8,16.7,15.7c2.6,3,4.3,6.3,5.3,9.9c1,3.6,1.5,7.4,1.5,11.2c0,1,0,2.1-0.1,3.1c0,1-0.1,2-0.3,3.1
			c-0.3,3.4-0.9,6.7-1.6,10c-0.8,3.3-1.5,6.4-2.3,9.3c-0.1,0.2-0.1,0.5-0.2,0.7c0,0.2-0.1,0.4-0.2,0.5c-3.4,5.7-7.9,10.9-13.4,15.6
			c-5.5,4.7-11.6,7.4-18.4,8.2c-9-0.2-17.5-1.1-25.7-2.7c-8.2-1.6-15-6.1-20.4-13.5c-4.2-3.9-7.2-8.5-9-13.6
			c-1.8-5.2-2.8-10.5-3-15.9c0-0.2,0-0.5,0-0.7c0-0.2,0-0.4,0-0.5c0-2.1,0.1-4.1,0.3-6.1c0.2-2,0.5-4,0.9-5.9
			c1.9-6.5,5-12.3,9.3-17.6c4.3-5.2,9.6-9.3,15.9-12.2C389.4,320.5,392.6,319.9,396,319.4z M425.7,334.5c-3.7-2.1-7.6-3.7-11.9-4.6
			c-1.3-0.2-2.5-0.4-3.8-0.5c-1.2-0.1-2.5-0.2-3.8-0.2c-3.7,0-7.2,0.6-10.7,1.7c-3.4,1.2-6.6,2.9-9.4,5.3
			c-4.5,3.4-7.9,7.7-10.3,12.8c-2.4,5.1-3.5,10.5-3.5,16.1c0,0.6,0,1.3,0.1,2c0,0.7,0.1,1.3,0.2,2c0,0.7,0.1,1.4,0.2,2.1
			c0.1,0.7,0.3,1.3,0.4,2c2.2,6.8,6,12.4,11.6,16.8c5.6,4.4,11.9,7,18.8,7.9c0.6,0.1,1.3,0.1,1.9,0.1c0.6,0,1.2,0,1.8,0
			c7.4,0,14.1-1.9,20.1-5.6c6-3.7,10.7-8.9,14-15.5c0.6-2,1-4,1.3-6.1c0.3-2.1,0.4-4.2,0.4-6.4c0-4-0.6-7.9-1.7-11.6
			c-1.1-3.7-2.9-7.1-5.4-10C432.9,339.4,429.4,336.6,425.7,334.5z M423.3,336.6c3.1,2,5.9,4.2,8.4,6.6c0.2,0.2,0.5,0.3,0.7,0.5
			c0.2,0.2,0.4,0.4,0.5,0.5c2.2,3,4,6.3,5.2,10c1.2,3.7,1.9,7.4,1.9,11.3c0,0.6,0,1.3-0.1,2c-0.1,0.7-0.2,1.3-0.2,2
			c-0.1,0.7-0.2,1.4-0.3,2.1c-0.1,0.7-0.3,1.3-0.4,2c-1.7,5.5-4.9,10.1-9.7,13.7c-4.8,3.6-9.9,6-15.3,7c-0.4,0.1-0.8,0.2-1.3,0.2
			c-0.4,0.1-0.9,0.2-1.4,0.2c-0.1,0-0.2,0-0.3,0s-0.2,0-0.3,0c-0.2,0-0.3,0-0.4,0c-0.1,0-0.2,0-0.4,0c-0.6,0-1.1,0-1.7-0.1
			c-0.6,0-1.2-0.1-1.7-0.1c-5.6-0.5-10.9-2.1-16-4.9c-5.1-2.8-9-6.9-11.8-12.2c-1-1.8-1.8-3.8-2.2-5.9c-0.4-2.1-0.7-4.3-0.7-6.5
			c0-0.3,0-0.7,0-1c0-0.4,0-0.7,0.1-1.1c0.2-3,0.7-5.9,1.7-8.8s2.2-5.4,3.8-7.7c3.5-4.3,7.4-7.8,11.6-10.3c4.2-2.6,9-3.8,14.2-3.8
			c0.3,0,0.7,0,1,0c0.4,0,0.7,0,1,0.1c0.6,0,1.3,0,2,0.1c0.7,0.1,1.4,0.2,2.1,0.4C416.9,333.3,420.2,334.6,423.3,336.6z
			 M418.9,346.8c-3.5-2.1-7.1-3.2-11-3.5c-0.2,0-0.3,0-0.5,0c-0.2,0-0.4,0-0.7,0c-2.5,0-4.9,0.4-7.1,1.3c-2.3,0.8-4.3,2.1-6.2,3.8
			c-2.1,2-3.7,4.3-4.9,6.8c-1.2,2.6-1.8,5.3-1.8,8.2c0,0.8,0.1,1.7,0.2,2.6c0.1,0.9,0.3,1.8,0.5,2.7c2,3.8,4.8,7.2,8.3,10.4
			c3.5,3.2,7.4,5,11.5,5.3c3.3-0.2,6.3-1,9.1-2.5c2.8-1.5,5.4-3.4,7.8-5.6c1.6-1.5,2.7-3.3,3.4-5.4c0.7-2.1,1-4.2,1-6.5
			c0-1.6-0.1-3.2-0.4-4.7c-0.3-1.6-0.7-3-1.4-4.4C425,351.6,422.4,348.8,418.9,346.8z"/>
		<path class="st3" d="M567.8,384.1c1.4,0.4,2.9,0.7,4.3,0.8c1.4,0.2,2.9,0.2,4.3,0.2c1.8,0,3.7-0.1,5.5-0.3
			c1.8-0.2,3.7-0.5,5.5-0.8c1.8-0.2,3.5-0.5,5.2-0.7c1.7-0.2,3.5-0.3,5.2-0.3c-0.2,1.4-0.6,2.7-1,4c-0.4,1.3-0.9,2.7-1.4,4
			c-0.4,1-0.8,2.1-1.3,3.2c-0.5,1.1-0.9,2.2-1.3,3.3c-0.9,1.9-1.7,3.9-2.5,5.8c-0.8,2-1.4,4-2,6.1l-52.1,0.4l-0.8-2
			c0.7-5.3,1.2-10.7,1.6-16.3c0.3-5.6,0.5-11.2,0.6-16.8c0-0.8,0-1.6,0-2.4c0-0.8,0-1.6,0-2.4c0-8.8-0.2-17.5-0.7-26
			c-0.4-8.5-0.9-16.6-1.5-24.3l1.4-1.2l30.8,1.2V384.1z M550.8,331.2l-0.2,66.6l29.4,0.7c0.2,0,0.3,0,0.5-0.1c0.2,0,0.4-0.1,0.6-0.2
			c0.3-0.2,0.6-0.5,1-0.7c0.3-0.2,0.6-0.5,0.7-0.8c0.1-0.2,0.1-0.3,0.1-0.5c0-0.2,0-0.3-0.1-0.5c-0.6-0.1-1.1-0.1-1.7-0.1
			c-0.6,0-1.2,0-1.8,0c-1.1,0-2.3,0-3.5,0.1c-1.2,0-2.4,0.1-3.6,0.2c-0.6,0-1.3,0-1.9,0.1c-0.6,0-1.2,0.1-1.9,0.1
			c-0.6,0.1-1.3,0.1-1.9,0.1c-0.6,0-1.2,0-1.9,0c-1.8,0-3.4-0.1-5-0.2c-1.6-0.2-3.2-0.4-4.7-0.7c-0.1-2.2-0.2-4.5-0.2-6.8
			c-0.1-2.3-0.1-4.7-0.1-7.1s0-4.8,0.1-7.3c0-2.4,0.1-4.9,0.2-7.4c0-1.5,0-3,0-4.5c0-1.5,0-3,0.1-4.5c0-1,0-2.1,0-3.1c0-1,0-2,0-2.9
			c0-3.5-0.1-7-0.2-10.4c-0.1-3.4-0.3-6.7-0.7-10H550.8z"/>
		<path class="st3" d="M609.1,319.5c1.2-0.1,2.3-0.2,3.4-0.2c0.2,0,0.3,0,0.4-0.1c0.1,0,0.3-0.1,0.4-0.1c2.5-0.2,5-0.3,7.6-0.5
			c2.6-0.2,5.2-0.2,7.8-0.2c1.6,0,3.2,0,4.7,0.1c1.6,0.1,3.2,0.2,4.9,0.4c0,4.6-0.1,9.2-0.2,13.9c-0.2,4.7-0.3,9.4-0.4,14.1
			c-0.1,1.8-0.1,3.5-0.2,5.2c0,1.7-0.1,3.5-0.2,5.2c-0.1,3.5-0.2,7-0.2,10.6c-0.1,3.5-0.1,7-0.1,10.6c0,5.1,0.1,10.2,0.3,15.1
			c0.2,5,0.6,9.8,1.1,14.5c-1.4,0.1-2.9,0.2-4.4,0.4c-1.5,0.2-3.1,0.3-4.7,0.5c-1,0.2-1.9,0.3-2.9,0.4c-1,0.1-2,0.2-2.9,0.2
			c-1.1,0.1-2.3,0.2-3.4,0.2c-1.2,0.1-2.3,0.1-3.4,0.1c-1.8,0-3.5-0.1-5.3-0.3c-1.8-0.2-3.4-0.6-5-1.1c0.4-7.9,0.8-15.5,1.1-22.7
			c0.3-7.2,0.5-14.4,0.5-21.5c0-0.8,0-1.6,0-2.3c0-0.8,0-1.5,0-2.3c0-6.3-0.2-12.7-0.5-19.3c-0.3-6.5-0.9-13.4-1.7-20.6
			C606.8,319.7,608,319.6,609.1,319.5z M624.7,334.8c0-0.3,0.1-0.6,0.1-0.9c0-0.1,0-0.1,0-0.2c0,0,0-0.1,0-0.2
			c-0.1-0.8-0.3-1.5-0.7-2.2c-0.4-0.6-0.9-1-1.7-1c-0.2,0-0.4,0-0.6,0.1c-0.2,0.1-0.5,0.2-0.8,0.4v66h2.8l0.8-61.3
			C624.6,335.4,624.7,335.1,624.7,334.8z"/>
		<path class="st3" d="M684.8,319.4c3.4-0.5,6.8-0.8,10.2-1c0.5,0,1,0,1.4,0c0.5,0,1,0,1.4,0c7.6,0,14.9,1.4,21.8,4.2
			c7,2.8,12.5,8,16.7,15.7c2.6,3,4.3,6.3,5.3,9.9c1,3.6,1.5,7.4,1.5,11.2c0,1,0,2.1-0.1,3.1c0,1-0.1,2-0.3,3.1
			c-0.3,3.4-0.9,6.7-1.6,10c-0.8,3.3-1.5,6.4-2.3,9.3c-0.1,0.2-0.1,0.5-0.2,0.7c0,0.2-0.1,0.4-0.2,0.5c-3.4,5.7-7.9,10.9-13.4,15.6
			c-5.5,4.7-11.6,7.4-18.4,8.2c-9-0.2-17.5-1.1-25.7-2.7c-8.2-1.6-15-6.1-20.4-13.5c-4.2-3.9-7.2-8.5-9-13.6
			c-1.8-5.2-2.8-10.5-3-15.9c0-0.2,0-0.5,0-0.7c0-0.2,0-0.4,0-0.5c0-2.1,0.1-4.1,0.3-6.1c0.2-2,0.5-4,0.9-5.9
			c1.9-6.5,5-12.3,9.3-17.6c4.3-5.2,9.6-9.3,15.9-12.2C678.2,320.5,681.4,319.9,684.8,319.4z M714.6,334.5
			c-3.7-2.1-7.6-3.7-11.9-4.6c-1.3-0.2-2.5-0.4-3.8-0.5c-1.2-0.1-2.5-0.2-3.8-0.2c-3.7,0-7.2,0.6-10.7,1.7c-3.4,1.2-6.6,2.9-9.4,5.3
			c-4.5,3.4-7.9,7.7-10.3,12.8c-2.4,5.1-3.5,10.5-3.5,16.1c0,0.6,0,1.3,0.1,2c0,0.7,0.1,1.3,0.2,2c0,0.7,0.1,1.4,0.2,2.1
			c0.1,0.7,0.3,1.3,0.4,2c2.2,6.8,6,12.4,11.6,16.8c5.6,4.4,11.9,7,18.8,7.9c0.6,0.1,1.3,0.1,1.9,0.1c0.6,0,1.2,0,1.8,0
			c7.4,0,14.1-1.9,20.1-5.6c6-3.7,10.7-8.9,14-15.5c0.6-2,1-4,1.3-6.1c0.3-2.1,0.4-4.2,0.4-6.4c0-4-0.6-7.9-1.7-11.6
			s-2.9-7.1-5.4-10C721.7,339.4,718.2,336.6,714.6,334.5z M712.2,336.6c3.1,2,5.9,4.2,8.4,6.6c0.2,0.2,0.5,0.3,0.7,0.5
			c0.2,0.2,0.4,0.4,0.5,0.5c2.2,3,4,6.3,5.2,10c1.2,3.7,1.9,7.4,1.9,11.3c0,0.6,0,1.3-0.1,2c-0.1,0.7-0.2,1.3-0.2,2
			c-0.1,0.7-0.2,1.4-0.3,2.1c-0.1,0.7-0.3,1.3-0.4,2c-1.7,5.5-4.9,10.1-9.7,13.7c-4.8,3.6-9.9,6-15.3,7c-0.4,0.1-0.8,0.2-1.3,0.2
			c-0.4,0.1-0.9,0.2-1.4,0.2c-0.1,0-0.2,0-0.3,0s-0.2,0-0.3,0c-0.2,0-0.3,0-0.4,0c-0.1,0-0.2,0-0.4,0c-0.6,0-1.1,0-1.7-0.1
			c-0.6,0-1.2-0.1-1.7-0.1c-5.6-0.5-10.9-2.1-16-4.9c-5.1-2.8-9-6.9-11.8-12.2c-1-1.8-1.8-3.8-2.2-5.9c-0.4-2.1-0.7-4.3-0.7-6.5
			c0-0.3,0-0.7,0-1c0-0.4,0-0.7,0.1-1.1c0.2-3,0.7-5.9,1.7-8.8s2.2-5.4,3.8-7.7c3.5-4.3,7.4-7.8,11.6-10.3c4.2-2.6,9-3.8,14.2-3.8
			c0.3,0,0.7,0,1,0s0.7,0,1,0.1c0.6,0,1.3,0,2,0.1c0.7,0.1,1.4,0.2,2.1,0.4C705.7,333.3,709,334.6,712.2,336.6z M707.8,346.8
			c-3.5-2.1-7.1-3.2-11-3.5c-0.2,0-0.3,0-0.5,0c-0.2,0-0.4,0-0.7,0c-2.5,0-4.9,0.4-7.1,1.3c-2.3,0.8-4.3,2.1-6.2,3.8
			c-2.1,2-3.7,4.3-4.9,6.8c-1.2,2.6-1.8,5.3-1.8,8.2c0,0.8,0.1,1.7,0.2,2.6c0.1,0.9,0.3,1.8,0.5,2.7c2,3.8,4.8,7.2,8.3,10.4
			c3.5,3.2,7.4,5,11.5,5.3c3.3-0.2,6.3-1,9.1-2.5c2.8-1.5,5.4-3.4,7.8-5.6c1.6-1.5,2.7-3.3,3.4-5.4c0.7-2.1,1-4.2,1-6.5
			c0-1.6-0.1-3.2-0.4-4.7c-0.3-1.6-0.7-3-1.4-4.4C713.9,351.6,711.3,348.8,707.8,346.8z"/>
		<path class="st3" d="M755.8,318.5c1.1,0,2.2-0.1,3.2-0.1c1.7,0,3.3,0.1,5,0.2c1.6,0.1,3.3,0.2,5,0.3c1.1,0.1,2.2,0.2,3.4,0.2
			c1.1,0.1,2.2,0.2,3.4,0.2c2.6,4.3,5.6,8.5,9,12.5c3.4,4,7,7.9,10.7,11.8c2.2,2.2,4.3,4.5,6.4,6.7c2.1,2.2,4.1,4.4,6,6.6
			c0.3,0.4,0.6,0.8,1,1.1c0.3,0.4,0.6,0.7,1,1.1h1.6c0.4-2.1,0.7-4.2,0.8-6.2c0.2-2.1,0.2-4.2,0.2-6.2c0-2.1-0.1-4.1-0.2-6.2
			s-0.2-4.1-0.3-6.2c-0.2-2.1-0.3-4.2-0.4-6.2c-0.1-2.1-0.2-4.1-0.2-6.1c1.6-0.2,3.2-0.5,4.7-0.7c1.6-0.2,3.1-0.4,4.7-0.5
			c3.1-0.5,6.3-0.9,9.4-1.3c3.2-0.4,6.3-0.8,9.4-1.1l0.8,2c-0.6,7-1,14.2-1.2,21.8c-0.2,7.6-0.4,15.2-0.4,22.9s0.1,15.3,0.2,22.8
			c0.2,7.5,0.3,14.6,0.5,21.2c-1.8,0.2-3.7,0.4-5.7,0.5s-4.1,0.2-6.2,0.2c-2,0-4-0.1-6.1-0.2s-4-0.3-5.9-0.5
			c-1.4-1.8-2.8-3.5-4.2-5.3c-1.4-1.8-2.7-3.5-4.1-5.3c-0.4-0.5-0.8-1-1.2-1.5c-0.4-0.5-0.8-1-1.1-1.5c-3.6-4.7-7.3-9.3-11-13.7
			c-3.7-4.4-7.9-8.4-12.4-11.9l-0.7,39.2h-27.1c-0.2-0.5-0.3-1-0.4-1.5c-0.1-0.5-0.1-1.1-0.1-1.6c0-0.6,0-1.3,0.1-1.9
			c0.1-0.6,0.2-1.3,0.2-1.9c0-0.1,0-0.2,0-0.3s0-0.2,0-0.3c0.1-0.6,0.1-1.1,0.2-1.7c0-0.6,0.1-1.1,0.1-1.7c0-0.2,0-0.3,0-0.4
			s0-0.3,0-0.4c0-0.2,0-0.3-0.1-0.4c0-0.1-0.1-0.3-0.1-0.4c0.1-5.8,0.1-11.6,0.1-17.6c0-6-0.1-11.9-0.2-17.8
			c-0.1-7.2-0.2-14.4-0.5-21.5c-0.2-7.1-0.5-14.1-0.8-20.9C753.6,318.6,754.7,318.5,755.8,318.5z M812.7,380.1
			c-3.6-3.9-7.1-7.9-10.6-11.9c-1.4-1.6-2.9-3.2-4.3-4.9c-1.4-1.6-2.8-3.3-4.3-4.9c-4.2-4.9-8.6-9.7-13.1-14.6
			c-4.5-4.8-9.3-9.5-14.3-13.9c-0.1,1.8-0.1,3.5-0.1,5.3c0,1.8,0,3.6,0,5.5c0,3.4,0,6.7,0.1,10.1c0.1,3.4,0.2,6.8,0.2,10.3
			c0,0.7,0,1.5,0,2.2c0,0.8,0,1.5,0.1,2.3c0.1,4.2,0.2,8.3,0.2,12.4c0.1,4.1,0.1,8.2,0.1,12.2c0,1.5,0,3,0,4.4c0,1.4,0,2.9-0.1,4.3
			c0.2,0,0.3,0,0.4,0c0.1,0,0.2,0,0.3,0c0.2,0.1,0.3,0.1,0.4,0.1s0.2,0,0.3,0c0.2,0,0.5,0,0.7-0.1c0.2-0.1,0.4-0.2,0.5-0.5V338
			c4.1,4.4,8.1,8.7,12.1,12.8c4,4.1,7.8,8.2,11.6,12.3c3.8,4,7.6,8,11.3,12.1c3.7,4.1,7.4,8.3,11,12.6c1.5,1.8,3.1,3.7,4.6,5.6
			c1.6,1.9,3.1,3.8,4.7,5.7h2.3v-68.5c-0.1,0-0.2,0-0.2,0c-0.1,0-0.2,0-0.2,0c-0.6,0-1,0.1-1.4,0.4c-0.4,0.3-0.6,0.6-0.8,1
			l-0.6,59.2C819.9,387.6,816.2,383.9,812.7,380.1z"/>
	</g>
	<path class="st4" d="M583.8,264.2c-2.4-5-9.2-8.4-13.6-11.2c-21.2-13.6-45.4-11.9-68.7-5.6c-5.6,1.5-13.1,2.6-18.1,5.8
		c-2.2,0.8-4.1,2.7-4.3,5.7c0,0.2,0,0.4,0,0.6c-0.1,0.8-0.2,1.7-0.1,2.6c-0.4,10.6,1.9,21.7,6.5,31.6c0.7,5.7,2.8,11,6.7,14.8
		c0.7,0.6,1.3,1.2,2.1,1.7c1.1,1.3,2.5,1.8,4,1.8c0.1,0,0.3,0.1,0.4,0.1c1.8,1.7,3.6,3.2,5.6,4.6c18.5,13.1,48.2,1.7,62.7-12.5
		c7.7-7.5,13.4-17.2,16.3-27.5C584.3,272.7,585.6,268.1,583.8,264.2z"/>
	<path class="st4" d="M768.3,265.8c-1.7-8.5-11.9-12.8-19.2-15.6c-3.2-1.2-6.4-2.1-9.7-2.7c-0.4-0.2-0.7-0.3-1.1-0.5
		c-13.4-5.2-28.4-6.2-42.5-3.4c-6.7,1.3-13.3,3.6-19.3,6.8c-2.5,1.3-4.4,2.8-5.7,4.5c-2.2,0.7-3.6,2.5-4,4.6c-1.1,1-1.7,2.5-1.5,4.6
		c0,0.3,0.1,0.5,0.1,0.8c-1.1,19.4,11,37.1,28.1,45.7c16.4,8.3,41.7,12.2,57.7,0.9c6.6-4.7,10.9-11.5,13.7-19.1
		C767.7,284.8,769.9,273.8,768.3,265.8z"/>
	<path class="st5" d="M793.3,131.7c-9.1-27.6-23.3-52.9-42-75c7.1-1.5,14.2-3.1,21.2-4.6c4.1-0.9,5.8-6.9,2.5-9.6
		c-21.1-18.1-48-28.3-75.6-28.4c0.2-0.2,0.4-0.5,0.6-0.7c3.1-3.5,1.5-8-2.5-9.6c-13.9-5.6-28.8-4-43-0.5c-16.1,4-31.9,9.6-47.7,14.5
		c-0.3,0.1-0.5,0.2-0.8,0.3c-25.2-11.2-54-10.7-78.8,1.6c-4,2-3.5,7.9,0,10c2.5,1.5,5,3,7.5,4.5c-33.9,1.6-68.1,10.8-91.9,36.1
		c-4.8,5,1.2,11.6,7,9.1c7.3-3.2,15-4,22.6-3c-19,27.8-26.4,62-20.1,95.4c0.9,4.7,6.6,5,9.6,2.5c1.6-1.3,3.3-2.5,5-3.6
		c-9,32.2,2.6,68.6,29.7,89.2c4.2,3.2,9.7-2,8.5-6.5c-0.9-3.3-1.2-6.4-1.1-9.5c17.7,13.2,38.7,20.9,61,22.1c3.2,0.2,5.7-2.8,5.8-5.8
		c0-0.7,0-1.3,0.1-2c20.7,12.5,43.3,23.2,68.1,19.2c22-3.6,40.3-17.5,56.7-32c0.5,4.4,1,8.9,1.6,13.3c0.4,3.8,3.3,6.5,7.3,5.6
		c22.2-5.3,40.6-19.8,51.5-39.3c1.7,2.6,3.2,5.3,4.5,8.3c2,4.6,9.5,3.2,10.5-1.4c7-31.7,7.4-64.2,1.2-96l13.9,3.1
		C790.2,139.6,794.7,136.1,793.3,131.7z M589.2,211.1c-10.1-2.4-20.1-5.2-30-8.5c-4.4-1.4-9.2-2.7-13-5.4c-4.6-3.3-6.2-8.3-7.6-13.6
		c-2.8-11.1-5.5-22.6-5.1-34.2c0.3-10,3-19.7,6.1-29.2l9.2,4.8c3.4,1.7,7.4,0.3,8.5-3.4c3.8-12.7,11.5-23.6,21.9-31.5
		c1.1,4.3,1.9,8.7,2.6,13.1c0.7,5.2,8.2,5.3,10.5,1.4c5.7-9.6,12.1-18.7,19.1-27.3c8.1,8.4,13.9,18.3,17.3,29.5
		c1.1,3.9,6.7,6,9.6,2.5c2.8-3.3,5.2-6.8,7.3-10.4c7.4,5.8,12,14.4,16.4,22.8c2.2,4.1,9.7,3.6,10.5-1.4c0.6-3.3,1.1-6.7,1.7-10
		c7.4,2.7,8.2,14.2,8.6,21.4c0.6,10.3,1.1,20.7,0.5,31.1c-0.6,10.1-2.1,21-6.8,30.1c-4.5,8.7-16.5,13.1-25,17
		C631.3,219.2,610.5,216.2,589.2,211.1z"/>
	<path class="st4" d="M683.1,131.7c0.6,10.3,1.1,20.7,0.5,31.1c-0.6,10.1-2.1,21-6.8,30.1c-4.5,8.7-16.5,13.1-25,17
		c-20.5,9.4-41.4,6.4-62.6,1.3c-10.1-2.4-20.1-5.2-30-8.5c-4.4-1.4-9.2-2.7-13-5.4c-4.6-3.3-6.2-8.3-7.6-13.6
		c-2.8-11.1-5.5-22.6-5.1-34.2c0.3-10,3-19.7,6.1-29.2l9.2,4.8c3.4,1.7,7.4,0.3,8.5-3.4c3.8-12.7,11.5-23.6,21.9-31.5
		c1.1,4.3,1.9,8.7,2.6,13.1c0.7,5.2,8.2,5.3,10.5,1.4c5.7-9.6,12.1-18.7,19.1-27.3c8.1,8.4,13.9,18.3,17.3,29.5
		c1.1,3.9,6.7,6,9.6,2.5c2.8-3.3,5.2-6.8,7.3-10.4c7.4,5.8,12,14.4,16.4,22.8c2.2,4.1,9.7,3.6,10.5-1.4c0.6-3.3,1.1-6.7,1.7-10
		C681.8,113,682.7,124.6,683.1,131.7z"/>
	<path class="st6" d="M584.5,126.8c-16.5,0-16.5,25.6,0,25.6C601,152.4,601,126.8,584.5,126.8z"/>
	<path class="st6" d="M633.6,125.8c-16.5,0-16.5,25.6,0,25.6C650,151.5,650.1,125.8,633.6,125.8z"/>
	<path class="st1" d="M636,128.9c-12.4,0-12.4,19.2,0,19.2C648.4,148.1,648.4,128.9,636,128.9z"/>
	<path class="st1" d="M586.7,130.3c-12.4,0-12.4,19.2,0,19.2C599.1,149.5,599.1,130.3,586.7,130.3z"/>
	<path class="st6" d="M583.2,131.4c-4.9,0-5,7.7,0,7.7C588.2,139.1,588.2,131.4,583.2,131.4z"/>
	<path class="st6" d="M632.8,130c-4.9,0-5,7.7,0,7.7C637.7,137.7,637.7,130,632.8,130z"/>
	<path class="st1" d="M642.7,173.5c-0.4-1.7-2.3-2.7-3.9-2.2c-1.7,0.5-2.6,2.2-2.2,3.9c0.2,1,0.1,2.2-0.4,3.3c-0.4,1-1.2,2-2.1,2.8
		c-2.1,1.6-5,2.1-7.3,1.7c-3.6-0.5-6.9-2.7-8.8-5.8c6.7-3.3,14.8-10.2,13-17.9c-0.3-1.5-2.1-3-3.7-2.8c-8.5,1-17,1.5-25.5,1.6
		c-0.9,0-1.7,0.3-2.3,0.7c0,0,0,0,0,0c-2.7,0.5-3.2,3.6-2.3,5.6c2.4,5.6,6,12.2,11.5,14c-0.1,1.1-0.5,2.1-1.3,3.1
		c-1.6,2-4.1,2.9-6.6,3.3c-2.5,0.5-5.5,0.5-8-0.2c-1.1-0.3-2.1-0.8-2.7-1.5c-0.4-0.4-0.5-0.5-0.8-1.1c-0.1-0.2,0,0-0.2-0.4
		c0-0.1-0.2-1-0.1-0.6c-0.2-1.7-1.4-3.2-3.2-3.2c-1.6,0-3.4,1.5-3.2,3.2c0.4,4.3,3.2,7.6,7.1,9.2c3.9,1.6,8.4,1.4,12.4,0.7
		c3.8-0.6,7.6-2.3,10.1-5.3c0.8-1,1.4-2,1.9-3.1c3.3,3.9,8.1,6.4,13.2,6.8c4.2,0.3,8.7-1.1,11.8-4.1
		C642.2,182.4,643.6,177.9,642.7,173.5z"/>
</g>
<g>
</g>
<g>
</g>
<g>
</g>
<g>
</g>
<g>
</g>
<g>
</g>
</svg>
