<?xml version="1.0" encoding="utf-8"?>
<!-- Generator: Adobe Illustrator 26.3.1, SVG Export Plug-In . SVG Version: 6.00 Build 0)  -->
<svg version="1.1" id="Layer_1" xmlns="http://www.w3.org/2000/svg" xmlns:xlink="http://www.w3.org/1999/xlink" x="0px" y="0px"
	 viewBox="0 0 135.3 107.1" style="enable-background:new 0 0 135.3 107.1;" xml:space="preserve">
<style type="text/css">
	.st0{fill:#A59379;}
	.st1{fill:#E8D2AD;}
	.st2{fill:#221E19;}
</style>
<g>
	<g>
		<path class="st0" d="M125.7,0.8c-3-1-77.2,7.7-115.2,8.4c-1.7,7.7,2.4,14.8,1.3,22.5c-0.5,3.4-3.5,7.2-2.1,10.3
			c1.4,3.1,2.4,5.9,5.5,4.5C7.7,50.2,6.8,60.3,7,68.6C7.2,78,1.5,88.4,1.7,97.8c1,3,3,5,6,7.7c28.4,1.9,56.8,2.1,85.2,0.7
			c4.1-0.2,8.3-0.5,12-2.3c3.7-1.8,6.8-5.5,6.6-9.6c4.4,7.6,14.3,11.6,22.8,9.2c0.2-32.8,1.8-88.2,0.3-92.7
			C132.2,5.2,128.7,1.8,125.7,0.8z"/>
	</g>
	<g>
		<path class="st1" d="M108.2,0.2c-3,0-65.7,0.2-103.7,0.9c-1.7,7.7-3,15.4-4.1,23.2c-0.5,3.4-0.9,7,0.5,10.1
			c1.4,3.1,5.1,5.5,8.2,4.1C1.7,42.2,0.8,52.3,1,60.6c0.2,12.3,0.5,24.6,0.7,36.8c28.4,1.9,56.8,2.1,85.2,0.7
			c4.1-0.2,8.3-0.5,12-2.3c3.7-1.8,6.8-5.5,6.6-9.6c4.4,7.6,14.3,11.6,22.8,9.2c0.2-32.8,2.8-92.7-1.2-94.2
			C122.2-0.8,115.2,0.2,108.2,0.2z"/>
	</g>
	<path class="st2" d="M99.3,16.4c-7.4-0.5-14.8-0.8-22.2-0.9c-15.5-0.3-31,0.2-46.3,1.5c-0.1,0-0.3,0-0.4,0c-1.5,0-2.6,0.3-3.5,0.8
		c-1.4,0.6-2.2,1.7-2.4,2.8c-1,2,0.4,4.6,4.5,4.6c15.3,0.1,30.7,0.3,46,0.7c7.5,0.2,15,0.4,22.5,0.7c5.2,0.2,12.5,0.2,12.6-4.6
		C110.2,17.9,104.1,16.8,99.3,16.4z"/>
	<path class="st2" d="M107.2,42.9c-0.7-1.5-2.6-3-4.8-2.8c-17.1,1.2-34.4,0-51.5,0.7c-7.2-0.1-14.8-0.3-21.7,1.1
		c-2.1,0.4-3.3,1.5-3.7,2.8c-0.4,0.5-0.7,1-0.8,1.7c-0.1,0.6-0.2,1.1-0.2,1.7c-0.4,2.7,3.5,4,6.3,3.7c0.8-0.1,1.7-0.2,2.5-0.3
		c9.8-0.3,19.7-0.4,29.5-0.2c4.9,0.1,9.9,0.4,14.8,0.5c3.1,0.1,6.2-0.3,9.4-0.4C97.3,51.7,110.9,51.2,107.2,42.9z"/>
	<path class="st2" d="M101.6,67.4c-16.8-1.2-33.7-0.4-50.5,0.5c-0.1,0-0.2,0-0.3,0c-6.8,0.1-13.6,0.2-20.4,0.3
		c-2.3-0.2-4.7,0.5-5.6,2.5c-1.9,4.4,3.2,6.3,8.3,6.6c7.6,0.4,15.2,0.4,22.8,0.4c15.2,0,30.4-0.5,45.5-1.4c2.9-0.2,4.8-1.5,5-3.7
		c0.1-0.5,0.1-1,0.2-1.5C106.8,69,104.1,67.6,101.6,67.4z"/>
</g>
<g>
</g>
<g>
</g>
<g>
</g>
<g>
</g>
<g>
</g>
<g>
</g>
</svg>
