<?xml version="1.0" encoding="utf-8"?>
<!-- Generator: Adobe Illustrator 26.3.1, SVG Export Plug-In . SVG Version: 6.00 Build 0)  -->
<svg version="1.1" id="Layer_1" xmlns="http://www.w3.org/2000/svg" xmlns:xlink="http://www.w3.org/1999/xlink" x="0px" y="0px"
	 viewBox="0 0 352.5 322.3" style="enable-background:new 0 0 352.5 322.3;" xml:space="preserve">
<style type="text/css">
	.st0{fill:#FDB714;}
	.st1{fill:#AA4925;}
	.st2{fill:#FFFFFF;}
	.st3{fill:#010101;}
</style>
<path class="st0" d="M142.7,264.2c-2.4-5-9.2-8.4-13.6-11.2c-21.2-13.6-45.4-11.9-68.7-5.6c-5.6,1.5-13.1,2.6-18.1,5.8
	c-2.2,0.8-4.1,2.7-4.3,5.7c0,0.2,0,0.4,0,0.6c-0.1,0.8-0.2,1.7-0.1,2.6c-0.4,10.6,1.9,21.7,6.5,31.6c0.7,5.7,2.8,11,6.7,14.8
	c0.7,0.6,1.3,1.2,2.1,1.7c1.1,1.3,2.5,1.8,4,1.8c0.1,0,0.3,0.1,0.4,0.1c1.8,1.7,3.6,3.2,5.6,4.6c18.5,13.1,48.2,1.7,62.7-12.5
	c7.7-7.5,13.4-17.2,16.3-27.5C143.3,272.7,144.6,268.1,142.7,264.2z"/>
<path class="st0" d="M327.2,265.8c-1.7-8.5-11.9-12.8-19.2-15.6c-3.2-1.2-6.4-2.1-9.7-2.7c-0.4-0.2-0.7-0.3-1.1-0.5
	c-13.4-5.2-28.4-6.2-42.5-3.4c-6.7,1.3-13.3,3.6-19.3,6.8c-2.5,1.3-4.4,2.8-5.7,4.5c-2.2,0.7-3.6,2.5-4,4.6c-1.1,1-1.7,2.5-1.5,4.6
	c0,0.3,0.1,0.5,0.1,0.8c-1.1,19.4,11,37.1,28.1,45.7c16.4,8.3,41.7,12.2,57.7,0.9c6.6-4.7,10.9-11.5,13.7-19.1
	C326.6,284.8,328.9,273.8,327.2,265.8z"/>
<path class="st1" d="M352.2,131.7c-9.1-27.6-23.3-52.9-42-75c7.1-1.5,14.2-3.1,21.2-4.6c4.1-0.9,5.8-6.9,2.5-9.6
	c-21.1-18.1-48-28.3-75.6-28.4c0.2-0.2,0.4-0.5,0.6-0.7c3.1-3.5,1.5-8-2.5-9.6c-13.9-5.5-28.8-4-43-0.5c-16.1,4-31.9,9.6-47.7,14.5
	c-0.3,0.1-0.5,0.2-0.8,0.3C139.8,6.8,111,7.3,86.1,19.6c-4,2-3.5,7.9,0,10c2.5,1.5,5,3,7.5,4.5C59.8,35.7,25.5,44.9,1.7,70.2
	c-4.8,5,1.2,11.6,7,9c7.3-3.2,15-4,22.6-3c-19,27.8-26.4,62-20.1,95.3c0.9,4.7,6.6,5,9.6,2.5c1.6-1.3,3.3-2.5,5-3.6
	c-9,32.2,2.6,68.6,29.7,89.2c4.2,3.2,9.7-2.1,8.5-6.5c-0.9-3.3-1.2-6.4-1.1-9.5c17.7,13.2,38.7,20.9,61,22.1
	c3.2,0.2,5.7-2.8,5.8-5.8c0-0.7,0-1.3,0.1-2c20.7,12.5,43.3,23.2,68.1,19.2c22-3.6,40.3-17.5,56.7-32c0.5,4.4,1.1,8.9,1.6,13.3
	c0.4,3.8,3.3,6.5,7.3,5.6c22.2-5.3,40.6-19.8,51.5-39.3c1.7,2.6,3.2,5.3,4.5,8.3c2,4.6,9.5,3.2,10.5-1.4c7-31.7,7.4-64.2,1.2-96
	l13.9,3C349.2,139.7,353.7,136.1,352.2,131.7z M148.2,211.1c-10.1-2.4-20.1-5.3-29.9-8.5c-4.4-1.4-9.2-2.7-13-5.4
	c-4.6-3.2-6.2-8.3-7.5-13.5c-2.8-11.1-5.5-22.6-5.1-34.2c0.3-10,3-19.7,6.1-29.2l9.3,4.8c3.3,1.7,7.4,0.2,8.5-3.4
	c3.8-12.7,11.5-23.6,21.9-31.5c1.1,4.3,1.9,8.7,2.6,13.2c0.7,5.2,8.2,5.3,10.5,1.4c5.7-9.6,12.1-18.7,19.1-27.3
	c8.1,8.4,13.9,18.3,17.3,29.5c1.2,3.9,6.7,6,9.6,2.5c2.8-3.3,5.2-6.7,7.3-10.4c7.4,5.9,12,14.4,16.4,22.8c2.2,4.1,9.7,3.6,10.5-1.4
	c0.6-3.4,1.1-6.7,1.7-10c7.3,2.7,8.2,14.2,8.6,21.3c0.6,10.3,1.1,20.7,0.5,31.1c-0.6,10.1-2.1,21.1-6.8,30.1
	c-4.5,8.7-16.5,13.1-25,17C190.3,219.2,169.4,216.2,148.2,211.1z"/>
<path class="st0" d="M242,131.7c0.6,10.3,1.1,20.7,0.5,31.1c-0.6,10.1-2.1,21.1-6.8,30.1c-4.5,8.7-16.5,13.1-25,17
	c-20.5,9.4-41.4,6.3-62.6,1.3c-10.1-2.4-20.1-5.3-29.9-8.5c-4.4-1.4-9.2-2.7-13-5.4c-4.6-3.2-6.2-8.3-7.5-13.5
	c-2.8-11.1-5.5-22.6-5.1-34.2c0.3-10,3-19.7,6.1-29.2l9.3,4.8c3.3,1.7,7.4,0.2,8.5-3.4c3.8-12.7,11.5-23.6,21.9-31.5
	c1.1,4.3,1.9,8.7,2.6,13.2c0.7,5.2,8.2,5.3,10.5,1.4c5.7-9.6,12.1-18.7,19.1-27.3c8.1,8.4,13.9,18.3,17.3,29.5
	c1.2,3.9,6.7,6,9.6,2.5c2.8-3.3,5.2-6.7,7.3-10.4c7.4,5.9,12,14.4,16.4,22.8c2.2,4.1,9.7,3.6,10.5-1.4c0.6-3.4,1.1-6.7,1.7-10
	C240.7,113,241.6,124.6,242,131.7z"/>
<path class="st2" d="M143.4,126.8c-16.5,0-16.5,25.6,0,25.6C159.9,152.4,159.9,126.8,143.4,126.8z"/>
<path class="st2" d="M192.5,125.8c-16.5,0-16.5,25.6,0,25.6C209,151.5,209,125.8,192.5,125.8z"/>
<path class="st3" d="M195,128.9c-12.4,0-12.4,19.2,0,19.2C207.3,148.1,207.4,128.9,195,128.9z"/>
<path class="st3" d="M145.7,130.3c-12.4,0-12.4,19.2,0,19.2C158,149.5,158.1,130.3,145.7,130.3z"/>
<path class="st2" d="M142.2,131.4c-4.9,0-5,7.7,0,7.7C147.1,139.1,147.1,131.4,142.2,131.4z"/>
<path class="st2" d="M191.7,130c-4.9,0-5,7.7,0,7.7C196.7,137.7,196.7,130,191.7,130z"/>
<path class="st3" d="M201.6,173.5c-0.4-1.7-2.3-2.7-3.9-2.2c-1.7,0.5-2.6,2.2-2.2,3.9c0.2,1,0.1,2.2-0.4,3.3c-0.4,1-1.2,2-2.1,2.8
	c-2.1,1.6-5,2.1-7.3,1.7c-3.6-0.5-6.9-2.7-8.8-5.8c6.7-3.3,14.8-10.2,13-17.9c-0.3-1.5-2.1-3-3.7-2.8c-8.5,1-17,1.5-25.5,1.6
	c-0.9,0-1.7,0.3-2.3,0.7c0,0,0,0,0,0c-2.7,0.5-3.2,3.6-2.3,5.6c2.4,5.6,6,12.2,11.5,14c-0.1,1.1-0.5,2.1-1.3,3.1
	c-1.6,2-4.1,2.9-6.6,3.3c-2.5,0.5-5.5,0.5-8-0.2c-1.1-0.3-2.1-0.8-2.7-1.5c-0.4-0.4-0.5-0.5-0.8-1.1c-0.1-0.2,0,0-0.2-0.4
	c0-0.1-0.2-1-0.1-0.6c-0.2-1.7-1.4-3.2-3.2-3.2c-1.6,0-3.4,1.5-3.2,3.2c0.4,4.3,3.2,7.6,7.1,9.2c3.9,1.6,8.4,1.4,12.4,0.7
	c3.8-0.6,7.6-2.3,10.1-5.3c0.8-1,1.4-2,1.9-3.1c3.3,3.9,8.1,6.4,13.2,6.8c4.2,0.3,8.7-1.1,11.8-4.1
	C201.2,182.4,202.5,177.9,201.6,173.5z"/>
<g>
</g>
<g>
</g>
<g>
</g>
<g>
</g>
<g>
</g>
<g>
</g>
</svg>
